<svg xmlns="http://www.w3.org/2000/svg" viewBox="0 0 64 64" fill="none">
  <defs>
    <linearGradient id="bg" x1="8" y1="6" x2="56" y2="58" gradientUnits="userSpaceOnUse">
      <stop stop-color="#45413C"/>
      <stop offset="1" stop-color="#2F2C28"/>
    </linearGradient>
    <linearGradient id="leftGlow" x1="8" y1="12" x2="32" y2="42" gradientUnits="userSpaceOnUse">
      <stop stop-color="#18C3FF"/>
      <stop offset="1" stop-color="#0C3E9A"/>
    </linearGradient>
    <linearGradient id="rightGlow" x1="32" y1="14" x2="56" y2="50" gradientUnits="userSpaceOnUse">
      <stop stop-color="#FFB347"/>
      <stop offset="1" stop-color="#FF3A1A"/>
    </linearGradient>
    <linearGradient id="core" x1="22" y1="20" x2="42" y2="44" gradientUnits="userSpaceOnUse">
      <stop stop-color="#00B9FF"/>
      <stop offset=".45" stop-color="#0E53B8"/>
      <stop offset=".72" stop-color="#8C1E8F"/>
      <stop offset="1" stop-color="#FF4A1F"/>
    </linearGradient>
    <filter id="soft" x="-20%" y="-20%" width="140%" height="140%">
      <feGaussianBlur stdDeviation="1.6"/>
    </filter>
  </defs>

  <rect x="2" y="2" width="60" height="60" rx="18" fill="url(#bg)"/>

  <g opacity=".9" filter="url(#soft)">
    <circle cx="23" cy="27" r="11" fill="#18C3FF"/>
    <circle cx="41" cy="28" r="11" fill="#FF9A2B"/>
    <circle cx="21" cy="39" r="8" fill="#0B65D3"/>
    <circle cx="44" cy="40" r="8" fill="#FF6524"/>
  </g>

  <path d="M18 17c5 0 9 4 9 9v12c0 5-4 9-9 9-5 0-9-4-9-9V26c0-5 4-9 9-9Z" fill="url(#leftGlow)"/>
  <path d="M46 17c-5 0-9 4-9 9v12c0 5 4 9 9 9 5 0 9-4 9-9V26c0-5-4-9-9-9Z" fill="url(#rightGlow)"/>

  <path d="M14 25h7l4 4h8" stroke="#fff" stroke-width="2.2" stroke-linecap="round" stroke-linejoin="round"/>
  <path d="M14 33h9l3 3h7" stroke="#fff" stroke-width="2.2" stroke-linecap="round" stroke-linejoin="round"/>
  <path d="M14 40h7l4-4h8" stroke="#fff" stroke-width="2.2" stroke-linecap="round" stroke-linejoin="round"/>
  <circle cx="13.5" cy="25" r="2.3" fill="#fff"/>
  <circle cx="13.5" cy="33" r="2.3" fill="#fff"/>
  <circle cx="13.5" cy="40" r="2.3" fill="#fff"/>
  <circle cx="24" cy="29" r="2" fill="#fff"/>
  <circle cx="24" cy="36" r="2" fill="#fff"/>

  <path d="M50 22c-3 0-5 2-5 5" stroke="#fff" stroke-width="2.6" stroke-linecap="round"/>
  <path d="M53 31c-3.5-3.5-9.5-3.5-13 0" stroke="#fff" stroke-width="2.6" stroke-linecap="round"/>
  <path d="M52 40c-2.5-2.5-6.5-2.5-9 0" stroke="#fff" stroke-width="2.6" stroke-linecap="round"/>

  <circle cx="32" cy="32" r="12.2" fill="url(#core)" stroke="#fff" stroke-width="2.8"/>
  <path d="m26.7 31.8 4.7 4.8 7.8-9" stroke="#fff" stroke-width="3.4" stroke-linecap="round" stroke-linejoin="round"/>
</svg>

